<svg aria-hidden="true" style="position: absolute; width: 0; height: 0; overflow: hidden;" version="1.1" xmlns="http://www.w3.org/2000/svg" xmlns:xlink="http://www.w3.org/1999/xlink">
<defs>
<symbol id="icon-Sound-waves" viewBox="0 0 27 32">
<path d="M3.208 11.789c0.354 0 0.642 0.287 0.642 0.642v7.138c0 0.354-0.287 0.642-0.642 0.642s-0.642-0.287-0.642-0.642v-7.138c0-0.354 0.287-0.642 0.642-0.642z"></path>
<path d="M0.642 13.895c0.354 0 0.642 0.287 0.642 0.642v2.927c0 0.354-0.287 0.642-0.642 0.642s-0.642-0.287-0.642-0.642v-2.927c0-0.354 0.287-0.642 0.642-0.642z"></path>
<path d="M26.306 13.895c0.354 0 0.642 0.287 0.642 0.642v2.927c0 0.354-0.287 0.642-0.642 0.642s-0.642-0.287-0.642-0.642v-2.927c0-0.354 0.287-0.642 0.642-0.642z"></path>
<path d="M5.774 10.526c0.354 0 0.642 0.287 0.642 0.642v9.664c0 0.354-0.287 0.642-0.642 0.642s-0.642-0.287-0.642-0.642v-9.664c0-0.354 0.287-0.642 0.642-0.642z"></path>
<path d="M8.341 6.737c0.354 0 0.642 0.287 0.642 0.642v17.243c0 0.354-0.287 0.642-0.642 0.642s-0.642-0.287-0.642-0.642v-17.243c0-0.354 0.287-0.642 0.642-0.642z"></path>
<path d="M10.907 9.263c0.354 0 0.642 0.287 0.642 0.642v12.19c0 0.354-0.287 0.642-0.642 0.642s-0.642-0.287-0.642-0.642v-12.19c0-0.354 0.287-0.642 0.642-0.642z"></path>
<path d="M13.474 2.526c0.354 0 0.642 0.287 0.642 0.642v25.664c0 0.354-0.287 0.642-0.642 0.642s-0.642-0.287-0.642-0.642v-25.664c0-0.354 0.287-0.642 0.642-0.642z"></path>
<path d="M16.040 0c0.354 0 0.642 0.287 0.642 0.642v30.717c0 0.354-0.287 0.642-0.642 0.642s-0.642-0.287-0.642-0.642v-30.717c0-0.354 0.287-0.642 0.642-0.642z"></path>
<path d="M18.606 6.737c0.354 0 0.642 0.287 0.642 0.642v17.243c0 0.354-0.287 0.642-0.642 0.642s-0.642-0.287-0.642-0.642v-17.243c0-0.354 0.287-0.642 0.642-0.642z"></path>
<path d="M21.173 9.684c0.354 0 0.642 0.287 0.642 0.642v11.348c0 0.354-0.287 0.642-0.642 0.642s-0.642-0.287-0.642-0.642v-11.348c0-0.354 0.287-0.642 0.642-0.642z"></path>
<path d="M23.739 11.368c0.354 0 0.642 0.287 0.642 0.642v7.98c0 0.354-0.287 0.642-0.642 0.642s-0.642-0.287-0.642-0.642v-7.98c0-0.354 0.287-0.642 0.642-0.642z"></path>
</symbol>
<symbol id="icon-Burger-menu" viewBox="0 0 32 32">
<path d="M4 22.667c0 0.736 0.597 1.333 1.333 1.333v0h21.333c0.736 0 1.333-0.597 1.333-1.333s-0.597-1.333-1.333-1.333v0h-21.333c-0.736 0-1.333 0.597-1.333 1.333v0zM4 16c0 0.736 0.597 1.333 1.333 1.333v0h21.333c0.736 0 1.333-0.597 1.333-1.333s-0.597-1.333-1.333-1.333v0h-21.333c-0.736 0-1.333 0.597-1.333 1.333v0zM5.333 8c-0.736 0-1.333 0.597-1.333 1.333s0.597 1.333 1.333 1.333v0h21.333c0.736 0 1.333-0.597 1.333-1.333s-0.597-1.333-1.333-1.333v0h-21.333z"></path>
</symbol>
<symbol id="icon-Close" viewBox="0 0 32 32">
<path d="M25.592 8.556c0.3-0.278 0.488-0.675 0.488-1.116 0-0.839-0.681-1.52-1.52-1.52-0.44 0-0.837 0.187-1.115 0.487l-0.001 0.001-7.444 7.444-7.444-7.444c-0.278-0.3-0.675-0.488-1.116-0.488-0.839 0-1.52 0.681-1.52 1.52 0 0.44 0.187 0.837 0.487 1.115l0.001 0.001 7.444 7.444-7.444 7.444c-0.3 0.279-0.488 0.675-0.488 1.116 0 0.839 0.681 1.52 1.52 1.52 0.44 0 0.837-0.187 1.115-0.487l0.001-0.001 7.444-7.444 7.444 7.444c0.279 0.3 0.675 0.488 1.116 0.488 0.839 0 1.52-0.681 1.52-1.52 0-0.44-0.187-0.837-0.487-1.115l-0.001-0.001-7.444-7.444 7.444-7.444z"></path>
</symbol>
<symbol id="icon-Burger-menu-hover" viewBox="0 0 32 32">
<path d="M4 22.667c0 0.736 0.597 1.333 1.333 1.333v0h9.333c0.736 0 1.333-0.597 1.333-1.333s-0.597-1.333-1.333-1.333v0h-9.333c-0.736 0-1.333 0.597-1.333 1.333v0zM4 16c0 0.736 0.597 1.333 1.333 1.333v0h21.333c0.736 0 1.333-0.597 1.333-1.333s-0.597-1.333-1.333-1.333v0h-21.333c-0.736 0-1.333 0.597-1.333 1.333v0zM5.333 8c-0.736 0-1.333 0.597-1.333 1.333s0.597 1.333 1.333 1.333v0h14.667c0.736 0 1.333-0.597 1.333-1.333s-0.597-1.333-1.333-1.333v0h-14.667z"></path>
</symbol>
</defs>
</svg>
